<?xml version="1.0" encoding="UTF-8" standalone="no"?>
<svg
   width="1233"
   height="1233"
   version="1.1"
   id="svg2"
   xml:space="preserve"
   sodipodi:docname="logo.svg"
   inkscape:version="1.3.2 (091e20ef0f, 2023-11-25)"
   xmlns:inkscape="http://www.inkscape.org/namespaces/inkscape"
   xmlns:sodipodi="http://sodipodi.sourceforge.net/DTD/sodipodi-0.dtd"
   xmlns="http://www.w3.org/2000/svg"
   xmlns:svg="http://www.w3.org/2000/svg"><sodipodi:namedview
     id="namedview1"
     pagecolor="#505050"
     bordercolor="#eeeeee"
     borderopacity="1"
     inkscape:showpageshadow="0"
     inkscape:pageopacity="0"
     inkscape:pagecheckerboard="0"
     inkscape:deskcolor="#505050"
     inkscape:zoom="0.96593674"
     inkscape:cx="615.98237"
     inkscape:cy="616.5"
     inkscape:window-width="2560"
     inkscape:window-height="1368"
     inkscape:window-x="0"
     inkscape:window-y="0"
     inkscape:window-maximized="1"
     inkscape:current-layer="svg2" /><defs
     id="defs2" /><path
     d="m 1139.5804,56.260547 4.4687,1.19879 c 1.9095,1.725918 2.9825,2.693452 3.6304,5.308684 -0.7618,3.944955 -2.8975,6.725127 -5.4924,9.682142 -10.4779,11.940289 -22.9453,22.314498 -34.401,33.319557 -25.9908,24.97394 -52.2808,49.53809 -77.486,75.31972 l 33.124,31.23656 c 10.8979,-10.26538 21.9234,-20.43044 32.5748,-30.94919 8.3745,-8.2708 16.7949,-16.5263 24.9875,-24.97564 4.688,-4.83257 11.7736,-14.0675 18.0992,-16.43618 3.5215,-1.31781 4.7356,-0.64105 8.0038,0.71078 1.6987,2.02519 2.4129,2.80397 2.6084,5.55864 -1.0406,3.34131 -2.8277,5.795 -5.1012,8.38473 -7.1689,8.16367 -15.8869,15.23909 -23.8636,22.61207 -15.7237,14.53171 -31.5613,29.30659 -46.127,44.99798 l 25.6269,25.39905 c 11.6631,-13.70192 24.8447,-25.64221 37.5042,-38.34598 8.0039,-8.03274 15.5792,-17.98865 25.5725,-23.67142 3.0421,-1.73102 5.5672,-1.96058 8.8609,-0.98114 2.338,2.12551 2.3363,2.72406 3.1219,5.66917 -2.0864,6.52448 -7.0108,10.69389 -11.6971,15.38022 -5.8358,5.83411 -11.7124,11.62401 -17.5891,17.41731 -11.6971,11.52879 -23.4214,23.00827 -34.8227,34.83293 l 15.5367,16.05698 c 13.5046,-14.09131 28.1384,-27.23548 41.9423,-41.06663 7.9784,-7.99533 15.0283,-17.13164 23.4878,-24.58795 2.8771,-2.53701 6.7353,-6.08917 10.6276,-6.71322 2.1714,-0.34859 4.6676,-0.0629 6.3595,1.43344 1.5593,1.37564 2.7309,3.64399 2.5149,5.7491 -0.7601,7.38998 -30.6499,33.05089 -37.3121,39.41213 -12.362,11.80255 -24.0693,24.47742 -37.3291,35.28013 l 21.5306,21.54081 -0.017,339.36299 -562.18321,547.92529 -196.7852,-190.3951 c -31.0155,31.5545 -62.87441,62.1551 -94.55477,93.0312 -7.19955,7.0176 -14.37358,14.0624 -21.53741,21.1157 -3.63718,3.5794 -7.76578,8.5412 -12.10523,11.1666 -2.73256,1.6528 -4.46698,1.4403 -7.47501,0.738 -1.76333,-1.8501 -3.10325,-3.1254 -3.16276,-5.8545 -0.0595,-2.702 1.62729,-5.3104 3.25118,-7.3441 14.38888,-18.0244 33.85009,-33.4369 50.48011,-49.3697 25.34633,-24.2853 49.87817,-49.3001 75.48976,-73.34389 L 368.46427,970.5105 c -12.47932,11.77534 -24.81581,23.64762 -36.96184,35.7648 -6.81355,6.7982 -13.6305,13.593 -20.42704,20.4083 -3.33961,3.3481 -7.06011,8.1007 -11.35365,10.1735 -2.59653,1.2515 -4.51289,0.7924 -7.08902,-0.1411 -1.64599,-1.8908 -2.59822,-2.9536 -2.8975,-5.5637 3.08795,-10.7058 17.70299,-21.767 25.77144,-29.5906 14.28175,-13.84814 28.73695,-27.51775 43.017,-41.3693 l -20.76372,-20.28421 c -4.9482,3.59127 -8.92716,8.40514 -13.19009,12.76499 -6.82375,6.97509 -13.75123,13.83455 -20.72631,20.6583 -38.88161,38.04332 -77.58637,76.25322 -116.30304,114.46322 -14.0522,13.8702 -28.1078,27.7371 -42.1957,41.5699 -5.57225,5.4702 -11.1479,10.9337 -16.79327,16.3274 -3.87353,3.7035 -7.22674,7.4546 -12.33648,9.4032 -3.05394,-0.3979 -3.78852,-0.471 -6.37654,-2.3465 -0.88252,-1.5797 -1.6324,-2.94 -1.56608,-4.8054 0.14453,-4.0572 3.66779,-7.5855 6.2201,-10.4558 16.06209,-18.0686 35.00127,-34.1987 52.39988,-50.9851 31.66336,-30.553 63.08186,-61.3798 94.63299,-92.05181 l 66.11029,-64.60713 -24.59475,-24.03531 c -11.65122,10.7619 -23.32454,21.534 -34.62037,32.6717 -20.27911,19.99684 -39.6876,40.86768 -60.03132,60.81351 -4.9329,4.83764 -15.59788,16.97354 -22.27369,18.51404 -2.049,0.4728 -3.92455,0.1531 -5.61136,-1.1851 -1.47766,-1.175 -2.29215,-2.7003 -2.34317,-4.5555 -0.10542,-3.899 2.32787,-6.5465 4.71525,-9.3488 11.85526,-13.91618 26.44309,-25.9789 39.57877,-38.73198 23.39426,-22.7158 46.49094,-45.73596 69.58083,-68.76123 l -42.67182,-42.06648 c -14.0454,13.20709 -27.80003,26.84949 -41.52405,40.39497 -9.36076,9.23834 -18.29982,19.22485 -28.5244,27.51266 -2.21903,1.79903 -5.26447,4.71354 -8.00213,5.59605 -1.50827,0.48632 -3.58787,0.16834 -4.9363,-0.68867 -2.85839,-1.81434 -2.55741,-3.15766 -3.10835,-6.198 1.00835,-3.46033 2.66965,-5.94633 5.04852,-8.61598 6.6095,-7.4223 14.98403,-14.13722 22.14106,-21.12251 16.142,-15.75941 32.04425,-31.76878 48.13694,-47.57921 l -17.86792,-17.7999 c -31.14983,30.32683 -62.12963,60.82881 -92.94958,91.49063 -19.25206,19.15343 -37.976989,38.83229 -57.266455,57.95001 -5.784799,5.73379 -15.274795,17.3493 -22.7379,20.2587 -2.836286,1.10697 -4.388762,-0.18024 -6.896868,-1.37733 -1.144377,-1.83814 -2.009887,-3.3243 -2.037093,-5.54844 -0.03401,-2.81078 1.123972,-4.81897 2.892399,-6.92408 16.40897,-19.53602 36.322487,-36.21195 54.498187,-54.06287 37.86816,-37.1914 75.74822,-74.36919 113.52966,-111.65071 l -22.80422,-22.48114 c -15.2884,14.58783 -30.26052,29.65688 -45.01839,44.77693 -14.77487,15.13366 -29.58545,30.14319 -44.85175,44.79054 -7.24885,6.95468 -16.067184,16.92929 -25.234101,20.96267 -2.43839,-0.0867 -3.76301,-0.96754 -5.759293,-2.21054 -1.212393,-2.22243 -1.85855,-3.09475 -1.668104,-5.71678 0.185345,-2.54722 1.532071,-4.17111 3.162765,-6.03986 C 80.562526,874.01896 96.21311,861.11623 110.34523,847.3446 132.62402,825.63545 154.0305,803.23253 177.23941,782.47051 146.89047,751.58764 116.11133,721.21149 85.182544,690.90336 76.233279,682.13434 67.221099,673.42823 58.200417,664.73233 51.616424,658.3847 44.762066,652.22921 39.091195,645.02797 l -0.04931,-340.6383 c 4.1354,-5.3529 10.105544,-9.98822 15.036737,-14.67795 9.05469,-8.61259 18.02436,-17.31359 26.988928,-26.0197 28.9444,-28.1129 58.04354,-56.06426 86.99984,-84.16356 8.90166,-8.63808 18.00906,-17.03982 26.96683,-25.61329 6.57209,-6.29152 12.74628,-13.28361 20.31481,-18.39675 l 220.85452,-0.78559 c 5.89703,3.93475 11.07308,10.04603 16.16581,14.99933 9.88279,9.61582 19.78259,19.21465 29.67218,28.82367 39.15537,38.0501 77.83123,76.71576 117.59024,114.12481 L 763.815,135.16133 l 218.2699,0.4064 9.6226,7.40529 c 9.0207,-8.85744 18.0516,-17.70468 27.023,-26.61314 7.492,-7.43929 15.0095,-17.075526 25.0589,-20.821532 2.4996,0.263564 3.4059,0.771987 5.3308,2.372074 0.5543,1.36203 1.0458,2.594828 1.0458,4.091188 0,2.81078 -1.3536,4.87508 -3.0047,7.0346 -3.9976,5.23387 -9.8589,9.84368 -14.6133,14.41439 -10.16,9.76546 -20.2808,19.57343 -30.417,29.3661 l 17.6537,18.33894 c 17.1606,-18.86946 36.5129,-35.08119 54.6546,-52.9202 12.2243,-12.02021 24.2887,-24.203656 36.4552,-36.281678 9.1108,-9.042787 18.0515,-18.422256 28.6859,-25.693215 z M 219.45042,151.81176 55.097166,310.00102 55.051255,637.49514 596.75469,1169.5828 872.86918,901.21193 1142.4405,638.33515 1142.267,311.94289 976.44463,152.94593 767.40967,153.11087 598.78668,314.55983 430.6211,152.06342 Z"
     id="path1"
     style="fill:#ba50ff;fill-opacity:1;stroke:none;stroke-width:5;stroke-opacity:1;stroke-dasharray:none" /><path
     style="fill:#ba50ff;fill-opacity:1;stroke:none;stroke-width:10;stroke-dasharray:none;stroke-opacity:1"
     d="m 46.310652,639.92219 0.828748,-333.58314 169.02436,-163.2419 217.26339,0.464 165.6611,160.09319 168.92868,-161.00277 211.67598,2.93576 171.93519,162.00519 -1.3693,332.41558 -553.32959,540.8063 z"
     id="path3" /><g
     id="g2"
     transform="matrix(4.2853432,0,0,4.2853432,196.57773,179.34134)"
     style="fill:#ffffff;fill-opacity:1;stroke:none;stroke-width:3.45615;stroke-dasharray:none;stroke-opacity:1"><polygon
       points="20,99.2 44.8,143.9 45.4,143.9 45.3,144.2 70.7,144.2 142.2,10 116.8,10 57.2,121.7 44.8,99.2 69.6,54.5 44.8,54.5 "
       id="polygon1"
       style="fill:#ffffff;fill-opacity:1;stroke:none;stroke-width:3.45615;stroke-dasharray:none;stroke-opacity:1" /><polygon
       points="154.2,99.8 129.4,144.5 154.2,144.5 179,99.8 154.2,55.1 153.6,55.1 153.7,54.8 128.3,54.8 56.8,189 82.2,189 141.8,77.3 "
       id="polygon2"
       style="fill:#ffffff;fill-opacity:1;stroke:none;stroke-width:3.45615;stroke-dasharray:none;stroke-opacity:1" /></g></svg>
